<svg width="124" height="26" viewBox="0 0 124 26" fill="none" xmlns="http://www.w3.org/2000/svg">
<path d="M0.39209 1.55136H4.7869V19.8887H0.39209V1.55136ZM6.53016 12.9649C6.53016 8.42974 9.22564 5.72374 13.3861 5.72374C17.5465 5.72374 20.2419 8.42974 20.2419 12.9649C20.2419 17.5001 17.6051 20.2213 13.3861 20.2213C9.16704 20.2213 6.53016 17.5757 6.53016 12.9649ZM15.8325 12.9649C15.8325 10.4706 14.8803 9.0042 13.3861 9.0042C11.8918 9.0042 10.9543 10.5159 10.9543 12.9649C10.9543 15.414 11.8772 16.8955 13.3861 16.8955C14.8949 16.8955 15.8325 15.5047 15.8325 12.9801V12.9649ZM21.8973 20.7806H26.1163C26.3171 21.2409 26.6566 21.622 27.0842 21.8672C27.5118 22.1124 28.0047 22.2084 28.4895 22.1412C30.1596 22.1412 31.0385 21.2039 31.0385 19.8433V17.3036H30.9506C30.6005 18.082 30.0323 18.7342 29.3194 19.1762C28.6066 19.6181 27.7817 19.8294 26.9514 19.7829C23.7431 19.7829 21.619 17.2583 21.619 12.9196C21.619 8.58092 23.6406 5.84468 27.01 5.84468C27.8663 5.81004 28.7125 6.04631 29.4352 6.52184C30.1578 6.99737 30.7224 7.68944 31.0532 8.50533V5.98074H35.448V19.7375C35.448 23.0482 32.6206 25.1042 28.4456 25.1042C24.5635 25.1042 22.1464 23.3052 21.8973 20.7957V20.7806ZM31.0532 12.9498C31.0532 10.7427 30.0717 9.3519 28.5188 9.3519C26.966 9.3519 26.0138 10.7276 26.0138 12.9498C26.0138 15.1721 26.9514 16.4268 28.5188 16.4268C30.0863 16.4268 31.0532 15.2023 31.0532 12.9649V12.9498ZM37.1033 12.9498C37.1033 8.41463 39.7988 5.70862 43.9592 5.70862C48.1197 5.70862 50.8298 8.41463 50.8298 12.9498C50.8298 17.485 48.1929 20.2062 43.9592 20.2062C39.7256 20.2062 37.1033 17.5757 37.1033 12.9649V12.9498ZM46.4057 12.9498C46.4057 10.4555 45.4535 8.98909 43.9592 8.98909C42.465 8.98909 41.6007 10.5159 41.6007 12.9801C41.6007 15.4442 42.5236 16.9106 44.0178 16.9106C45.5121 16.9106 46.4057 15.5047 46.4057 12.9801V12.9498ZM52.4998 2.68516C52.4883 2.22726 52.6088 1.77615 52.846 1.389C53.0832 1.00186 53.4265 0.696115 53.8323 0.510534C54.2381 0.324954 54.6882 0.267893 55.1255 0.346584C55.5627 0.425275 55.9675 0.636175 56.2885 0.952549C56.6095 1.26892 56.8322 1.67652 56.9284 2.12368C57.0247 2.57083 56.9901 3.0374 56.8291 3.46425C56.668 3.89109 56.3878 4.25898 56.0239 4.52129C55.66 4.7836 55.2289 4.92851 54.7851 4.93764C54.4909 4.9585 54.1957 4.91635 53.9181 4.81385C53.6404 4.71135 53.3863 4.55071 53.1717 4.34202C52.9571 4.13334 52.7866 3.88111 52.671 3.60118C52.5554 3.32125 52.4971 3.01968 52.4998 2.71539V2.68516ZM52.4998 6.01097H56.8946V19.8887H52.4998V6.01097ZM72.8477 12.9498C72.8477 17.485 70.8994 20.0701 67.5593 20.0701C66.7029 20.1268 65.8502 19.9108 65.1166 19.4511C64.383 18.9915 63.8038 18.3105 63.4575 17.5001H63.3696V24.3332H58.9748V5.98074H63.3696V8.45998H63.4575C63.7877 7.63626 64.3558 6.9375 65.0845 6.45874C65.8132 5.97998 66.6671 5.74446 67.53 5.78421C70.8994 5.84468 72.9063 8.44486 72.9063 12.9801L72.8477 12.9498ZM68.4529 12.9498C68.4529 10.7427 67.4714 9.33679 65.9333 9.33679C64.3951 9.33679 63.4136 10.7578 63.3989 12.9498C63.3843 15.1418 64.3951 16.5478 65.9333 16.5478C67.4714 16.5478 68.4529 15.1721 68.4529 12.9801V12.9498ZM80.3922 5.69351C84.0398 5.69351 86.2519 7.47735 86.3544 10.3345H82.3552C82.3552 9.3519 81.5641 8.73209 80.3482 8.73209C79.1323 8.73209 78.5903 9.21585 78.5903 9.92636C78.5903 10.6369 79.0737 10.8636 80.0552 11.0753L82.8679 11.6649C85.5487 12.2544 86.6914 13.3731 86.6914 15.4744C86.6914 18.3467 84.157 20.191 80.4215 20.191C76.6859 20.191 74.2394 18.3467 74.049 15.5198H78.2827C78.4145 16.5478 79.2056 17.1524 80.4947 17.1524C81.7839 17.1524 82.3698 16.714 82.3698 15.9884C82.3698 15.2628 81.9596 15.1116 80.9049 14.8848L78.3705 14.3255C75.7483 13.7662 74.3713 12.33 74.3713 10.2136C74.4006 7.49247 76.7591 5.72374 80.3922 5.72374V5.69351ZM101.355 19.8585H97.1217V17.2734H97.0338C96.8011 18.1413 96.2877 18.901 95.5789 19.4262C94.87 19.9514 94.0084 20.2107 93.1371 20.1608C92.4694 20.2 91.8013 20.0908 91.178 19.8406C90.5547 19.5905 89.9907 19.2052 89.5241 18.7108C89.0575 18.2163 88.6991 17.6243 88.4733 16.9747C88.2474 16.3251 88.1593 15.6331 88.2149 14.9453V5.98074H92.6097V13.9022C92.6097 15.55 93.4301 16.4268 94.7925 16.4268C95.1119 16.4275 95.4279 16.3577 95.719 16.2221C96.0102 16.0865 96.27 15.8882 96.4808 15.6405C96.6917 15.3929 96.8488 15.1015 96.9417 14.7861C97.0345 14.4706 97.0609 14.1384 97.0192 13.8115V5.98074H101.414L101.355 19.8585ZM103.48 5.98074H107.728V8.65651H107.816C108.049 7.80008 108.551 7.04763 109.243 6.51694C109.934 5.98625 110.777 5.7073 111.639 5.72374C112.516 5.65128 113.387 5.9221 114.079 6.48232C114.772 7.04255 115.234 7.85113 115.375 8.74721H115.463C115.728 7.8416 116.279 7.05297 117.027 6.50557C117.775 5.95817 118.678 5.68312 119.594 5.72374C120.191 5.70302 120.787 5.81229 121.341 6.04446C121.895 6.27663 122.395 6.62649 122.81 7.07132C123.224 7.51615 123.543 8.04599 123.747 8.62642C123.95 9.20685 124.032 9.82488 123.989 10.4404V19.8887H119.594V11.6497C119.594 10.138 118.935 9.44261 117.704 9.44261C117.43 9.44021 117.158 9.49857 116.907 9.61376C116.657 9.72895 116.433 9.89828 116.251 10.1103C116.069 10.3224 115.933 10.5722 115.853 10.843C115.773 11.1138 115.749 11.3992 115.785 11.68V19.8887H111.61V11.5893C111.61 10.1985 110.951 9.44261 109.749 9.44261C109.472 9.4427 109.198 9.50351 108.944 9.62103C108.691 9.73855 108.465 9.91011 108.281 10.1244C108.097 10.3387 107.959 10.5908 107.876 10.8642C107.794 11.1375 107.768 11.4259 107.801 11.7102V19.8887H103.406L103.48 5.98074Z" fill="white"/>
</svg>
