<svg width="472" height="228" viewBox="0 0 472 228" fill="none" xmlns="http://www.w3.org/2000/svg">
<path d="M248.893 226.472C283.339 218.469 272.997 169.578 303.266 154.402C342.868 134.545 405.389 157.88 438.417 131.447C471.939 104.618 475.976 59.892 469.231 21.5733C461.936 -19.871 440.581 -62.52 399.607 -89.0383C359.115 -115.245 303.468 -121.907 252.459 -118.722C207.26 -115.901 174.199 -87.9136 133.591 -72.4303C94.3329 -57.4617 41.8386 -58.1808 17.7218 -29.2199C-6.43641 -0.209301 -2.64391 40.5779 11.2953 74.4296C23.6238 104.37 60.4925 121.705 88.9275 143.705C110.655 160.515 132.889 174.998 158.216 188.102C187.567 203.288 216.034 234.106 248.893 226.472Z" fill="#2AB1AD"/>
</svg>
